{"title":"The.Dead.Inside.2011.DVDRip XViD -juggs","uid":8144817,"size":744782017,"categoryP":"video","categoryS":"movies","magnet":"?xt=urn:btih:6043594a58e25776c01d34a41c3f98bf91cbadec&amp;dn=The.Dead.Inside.2011.DVDRip+XViD+-juggs&amp;tr=udp%3A%2F%2Ftracker.openbittorrent.com%3A80&amp;tr=udp%3A%2F%2Fopen.demonii.com%3A1337&amp;tr=udp%3A%2F%2Ftracker.coppersurfer.tk%3A6969&amp;tr=udp%3A%2F%2Fexodus.desync.com%3A6969","seeders":1,"leechers":0,"uploader":"juggs99","files":3,"time":1360888445,"description":" &lt;a href=&quot;http://leetleech.org/images/11789677135462540174.jpg&quot; rel=&quot;nofollow&quot; target=&quot;_NEW&quot;&gt;http://leetleech.org/images/11789677135462540174.jpg&lt;/a&gt;\n\n\nFormat : AVI\nFormat/Info : Audio Video Interleave\nFile size : 702 MiB\nDuration : 1h 39mn\nOverall bit rate : 991 Kbps\nWriting library : VirtualDub build 32842/release\n\nVideo\nID : 0\nFormat : MPEG-4 Visual\nFormat profile : Advanced Simple@L5\nFormat settings, BVOP : 4\nFormat settings, QPel : No\nFormat settings, GMC : No warppoints\nFormat settings, Matrix : Default (H.263)\nMuxing mode : Packed bitstream\nCodec ID : XVID\nCodec ID/Hint : XviD\nDuration : 1h 39mn\nBit rate : 854 Kbps\nWidth : 640 pixels\nHeight : 352 pixels\nDisplay aspect ratio : 16:9\nFrame rate : 23.976 fps\nColor space : YUV\nChroma subsampling : 4:2:0\nBit depth : 8 bits\nScan type : Progressive\nCompression mode : Lossy\nBits/(Pixel*Frame) : 0.158\nStream size : 605 MiB (86%)\nWriting library : XviD 64\n\nAudio\nID : 1\nFormat : MPEG Audio\nFormat version : Version 1\nFormat profile : Layer 3\nMode : Joint stereo\nMode extension : MS Stereo\nCodec ID : 55\nCodec ID/Hint : MP3\nDuration : 1h 39mn\nBit rate mode : Constant\nBit rate : 128 Kbps\nChannel(s) : 2 channels\nSampling rate : 44.1 KHz\nCompression mode : Lossy\nStream size : 90.7 MiB (13%)\nAlignment : Split accross interleaves\nInterleave, duration : 42 ms (1.00 video frame)\nInterleave, preload duration : 500 ms\nWriting library : LAME3.98\n\n\n\nPlot\n\nWes and Fi are empty. While their love for each other burns strong, artistically their hearts have been locked in a box for years. Wes is a burned out photographer paying the bills by shooting weddings. Fi is the writer's-blocked author of a series of zombie novellas called, The Dead Survive.\n\n &lt;a href=&quot;\nhttp://www.shotpix.com/images/35937992693135289961.png&quot; rel=&quot;nofollow&quot; target=&quot;_NEW&quot;&gt;\nhttp://www.shotpix.com/images/35937992693135289961.png&lt;/a&gt;\nhttphttp://www.shotpix.com/images/59609012561130401725.png://www.shotpix.com/images/88677871485924027457.png\n","torrent":{"xt":"urn:btih:6043594a58e25776c01d34a41c3f98bf91cbadec","amp;dn":"The.Dead.Inside.2011.DVDRip+XViD+-juggs","amp;tr":["udp%3A%2F%2Ftracker.openbittorrent.com%3A80","udp%3A%2F%2Fopen.demonii.com%3A1337","udp%3A%2F%2Ftracker.coppersurfer.tk%3A6969","udp%3A%2F%2Fexodus.desync.com%3A6969"],"infoHash":"6043594a58e25776c01d34a41c3f98bf91cbadec","infoHashBuffer":{"type":"Buffer","data":[96,67,89,74,88,226,87,118,192,29,52,164,28,63,152,191,145,203,173,236]},"announce":[],"urlList":[]}}